<svg xmlns="http://www.w3.org/2000/svg" viewBox="0 0 600 900" fill="none" preserveAspectRatio="xMidYMid slice" aria-hidden="true">
    <defs>
      <linearGradient id="world-lucky-disaster-sky" x1="0" y1="0" x2=".8" y2="1"><stop stop-color="#070c17"/><stop offset=".55" stop-color="#162c3c"/><stop offset="1" stop-color="#080e18"/></linearGradient>
      <radialGradient id="world-lucky-disaster-aura"><stop stop-color="#ffd597" stop-opacity=".45"/><stop offset=".38" stop-color="#6c678f" stop-opacity=".3"/><stop offset="1" stop-color="#6c678f" stop-opacity="0"/></radialGradient>
      <radialGradient id="world-lucky-disaster-sun" cx=".5" cy=".4" r=".65"><stop stop-color="#ffd597" stop-opacity=".75"/><stop offset=".65" stop-color="#6c678f" stop-opacity=".6"/><stop offset="1" stop-color="#6c678f" stop-opacity=".1"/></radialGradient>
      <radialGradient id="world-lucky-disaster-lantern"><stop stop-color="#ffd597" stop-opacity=".45"/><stop offset="1" stop-color="#ffd597" stop-opacity="0"/></radialGradient>
      <linearGradient id="world-lucky-disaster-robe"><stop stop-color="#162c3c"/><stop offset=".4" stop-color="#101d2b"/><stop offset=".83" stop-color="#6c678f" stop-opacity=".65"/><stop offset="1" stop-color="#162c3c"/></linearGradient>
      <linearGradient id="world-lucky-disaster-portal" x1="0" y1="0" x2="0" y2="1"><stop stop-color="#6c678f" stop-opacity=".4"/><stop offset="1" stop-color="#ffd597" stop-opacity=".14"/></linearGradient>
      <linearGradient id="world-lucky-disaster-floor" x1="0" y1="0" x2="0" y2="1"><stop stop-color="#ffd597" stop-opacity=".13"/><stop offset="1" stop-color="#080e18"/></linearGradient>
      <linearGradient id="world-lucky-disaster-book"><stop stop-color="#6c678f" stop-opacity=".45"/><stop offset=".5" stop-color="#162c3c"/><stop offset="1" stop-color="#6c678f" stop-opacity=".6"/></linearGradient>
      <linearGradient id="world-lucky-disaster-fade" x1="0" y1="0" x2="0" y2="1"><stop offset=".65" stop-color="#080e18" stop-opacity="0"/><stop offset="1" stop-color="#080e18" stop-opacity=".96"/></linearGradient>
    </defs>
    <path fill="url(#world-lucky-disaster-sky)" d="M0 0H600V900H0Z"/>
    <ellipse cx="300" cy="382" rx="369" ry="403" fill="url(#world-lucky-disaster-aura)" opacity=".5"/>
    <g class="world-stars"><circle cx="182.0" cy="23.0" r="1.7" fill="#c6b4ff" opacity="0.2"/><circle cx="319.5" cy="114.4" r="0.65" fill="#ffd597" opacity="0.32"/><circle cx="457.0" cy="205.7" r="0.65" fill="#ffd597" opacity="0.44"/><circle cx="594.5" cy="297.1" r="0.65" fill="#ffd597" opacity="0.56"/><circle cx="132.0" cy="388.4" r="0.65" fill="#c6b4ff" opacity="0.6799999999999999"/><circle cx="269.5" cy="479.8" r="0.65" fill="#ffd597" opacity="0.2"/><circle cx="407.0" cy="571.1" r="0.65" fill="#ffd597" opacity="0.32"/><circle cx="544.6" cy="662.5" r="0.65" fill="#ffd597" opacity="0.44"/><circle cx="82.1" cy="33.9" r="0.65" fill="#c6b4ff" opacity="0.56"/><circle cx="219.6" cy="125.2" r="1.7" fill="#ffd597" opacity="0.6799999999999999"/><circle cx="357.1" cy="216.6" r="0.65" fill="#ffd597" opacity="0.2"/><circle cx="494.6" cy="307.9" r="0.65" fill="#ffd597" opacity="0.32"/><circle cx="32.1" cy="399.3" r="0.65" fill="#c6b4ff" opacity="0.44"/><circle cx="169.6" cy="490.6" r="0.65" fill="#ffd597" opacity="0.56"/><circle cx="307.1" cy="582.0" r="0.65" fill="#ffd597" opacity="0.6799999999999999"/><circle cx="444.6" cy="673.4" r="0.65" fill="#ffd597" opacity="0.2"/><circle cx="582.1" cy="44.7" r="0.65" fill="#c6b4ff" opacity="0.32"/><circle cx="119.6" cy="136.1" r="0.65" fill="#ffd597" opacity="0.44"/><circle cx="257.1" cy="227.4" r="1.7" fill="#ffd597" opacity="0.56"/><circle cx="394.7" cy="318.8" r="0.65" fill="#ffd597" opacity="0.6799999999999999"/><circle cx="532.2" cy="410.1" r="0.65" fill="#c6b4ff" opacity="0.2"/><circle cx="69.7" cy="501.5" r="0.65" fill="#ffd597" opacity="0.32"/><circle cx="207.2" cy="592.9" r="0.65" fill="#ffd597" opacity="0.44"/><circle cx="344.7" cy="684.2" r="0.65" fill="#ffd597" opacity="0.56"/><circle cx="482.2" cy="55.6" r="0.65" fill="#c6b4ff" opacity="0.6799999999999999"/><circle cx="19.7" cy="146.9" r="0.65" fill="#ffd597" opacity="0.2"/><circle cx="157.2" cy="238.3" r="0.65" fill="#ffd597" opacity="0.32"/><circle cx="294.7" cy="329.6" r="1.7" fill="#ffd597" opacity="0.44"/><circle cx="432.2" cy="421.0" r="0.65" fill="#c6b4ff" opacity="0.56"/><circle cx="569.7" cy="512.4" r="0.65" fill="#ffd597" opacity="0.6799999999999999"/><circle cx="107.2" cy="603.7" r="0.65" fill="#ffd597" opacity="0.2"/><circle cx="244.7" cy="695.1" r="0.65" fill="#ffd597" opacity="0.32"/><circle cx="382.3" cy="66.4" r="0.65" fill="#c6b4ff" opacity="0.44"/><circle cx="519.8" cy="157.8" r="0.65" fill="#ffd597" opacity="0.56"/><circle cx="57.3" cy="249.1" r="0.65" fill="#ffd597" opacity="0.6799999999999999"/><circle cx="194.8" cy="340.5" r="0.65" fill="#ffd597" opacity="0.2"/><circle cx="332.3" cy="431.9" r="1.7" fill="#c6b4ff" opacity="0.32"/><circle cx="469.8" cy="523.2" r="0.65" fill="#ffd597" opacity="0.44"/><circle cx="7.3" cy="614.6" r="0.65" fill="#ffd597" opacity="0.56"/><circle cx="144.8" cy="705.9" r="0.65" fill="#ffd597" opacity="0.6799999999999999"/><circle cx="282.3" cy="77.3" r="0.65" fill="#c6b4ff" opacity="0.2"/><circle cx="419.8" cy="168.6" r="0.65" fill="#ffd597" opacity="0.32"/><circle cx="557.3" cy="260.0" r="0.65" fill="#ffd597" opacity="0.44"/><circle cx="94.8" cy="351.4" r="0.65" fill="#ffd597" opacity="0.56"/><circle cx="232.4" cy="442.7" r="0.65" fill="#c6b4ff" opacity="0.6799999999999999"/><circle cx="369.9" cy="534.1" r="1.7" fill="#ffd597" opacity="0.2"/><circle cx="507.4" cy="625.4" r="0.65" fill="#ffd597" opacity="0.32"/><circle cx="44.9" cy="716.8" r="0.65" fill="#ffd597" opacity="0.44"/><circle cx="182.4" cy="88.1" r="0.65" fill="#c6b4ff" opacity="0.56"/><circle cx="319.9" cy="179.5" r="0.65" fill="#ffd597" opacity="0.6799999999999999"/><circle cx="457.4" cy="270.9" r="0.65" fill="#ffd597" opacity="0.2"/><circle cx="594.9" cy="362.2" r="0.65" fill="#ffd597" opacity="0.32"/><circle cx="132.4" cy="453.6" r="0.65" fill="#c6b4ff" opacity="0.44"/><circle cx="269.9" cy="544.9" r="0.65" fill="#ffd597" opacity="0.56"/><circle cx="407.4" cy="636.3" r="1.7" fill="#ffd597" opacity="0.6799999999999999"/><circle cx="544.9" cy="7.6" r="0.65" fill="#ffd597" opacity="0.2"/><circle cx="82.4" cy="99.0" r="0.65" fill="#c6b4ff" opacity="0.32"/><circle cx="220.0" cy="190.3" r="0.65" fill="#ffd597" opacity="0.44"/><circle cx="357.5" cy="281.7" r="0.65" fill="#ffd597" opacity="0.56"/><circle cx="495.0" cy="373.1" r="0.65" fill="#ffd597" opacity="0.6799999999999999"/><circle cx="32.5" cy="464.4" r="0.65" fill="#c6b4ff" opacity="0.2"/><circle cx="170.0" cy="555.8" r="0.65" fill="#ffd597" opacity="0.32"/><circle cx="307.5" cy="647.1" r="0.65" fill="#ffd597" opacity="0.44"/><circle cx="445.0" cy="18.5" r="1.7" fill="#ffd597" opacity="0.56"/><circle cx="582.5" cy="109.8" r="0.65" fill="#c6b4ff" opacity="0.6799999999999999"/><circle cx="120.0" cy="201.2" r="0.65" fill="#ffd597" opacity="0.2"/><circle cx="257.5" cy="292.6" r="0.65" fill="#ffd597" opacity="0.32"/><circle cx="395.0" cy="383.9" r="0.65" fill="#ffd597" opacity="0.44"/><circle cx="532.5" cy="475.3" r="0.65" fill="#c6b4ff" opacity="0.56"/><circle cx="70.1" cy="566.6" r="0.65" fill="#ffd597" opacity="0.6799999999999999"/><circle cx="207.6" cy="658.0" r="0.65" fill="#ffd597" opacity="0.2"/><circle cx="345.1" cy="29.3" r="0.65" fill="#ffd597" opacity="0.32"/><circle cx="482.6" cy="120.7" r="1.7" fill="#c6b4ff" opacity="0.44"/><circle cx="20.1" cy="212.1" r="0.65" fill="#ffd597" opacity="0.56"/><circle cx="157.6" cy="303.4" r="0.65" fill="#ffd597" opacity="0.6799999999999999"/></g>
    <path d="M-30 615L54 453L92 510L166 339L202 462L236 425L274 564L325 440L353 492L409 333L456 467L501 412L630 616V900H-30Z" fill="#6c678f" opacity=".2"/><path d="M-30 696L45 528L115 611L166 486L252 660L329 541L385 604L456 481L539 650L630 536V900H-30Z" fill="#162c3c" opacity=".85"/><g class="world-halo"><circle cx="300" cy="355" r="217" fill="url(#world-lucky-disaster-aura)"/><circle cx="300" cy="355" r="181" fill="none" stroke="#ffd597" stroke-width="2" opacity=".7"/><circle cx="300" cy="355" r="170" fill="none" stroke="#ffd597" stroke-width=".8" opacity=".3"/><circle cx="300" cy="355" r="194" fill="none" stroke="#ffd597" stroke-dasharray="1 13" stroke-width="3" opacity=".65"/><path d="M300 148V129" stroke="#ffd597" stroke-opacity=".65" transform="rotate(0 300 355)"/><path d="M300 148V129" stroke="#ffd597" stroke-opacity=".65" transform="rotate(30 300 355)"/><path d="M300 148V129" stroke="#ffd597" stroke-opacity=".65" transform="rotate(60 300 355)"/><path d="M300 148V129" stroke="#ffd597" stroke-opacity=".65" transform="rotate(90 300 355)"/><path d="M300 148V129" stroke="#ffd597" stroke-opacity=".65" transform="rotate(120 300 355)"/><path d="M300 148V129" stroke="#ffd597" stroke-opacity=".65" transform="rotate(150 300 355)"/><path d="M300 148V129" stroke="#ffd597" stroke-opacity=".65" transform="rotate(180 300 355)"/><path d="M300 148V129" stroke="#ffd597" stroke-opacity=".65" transform="rotate(210 300 355)"/><path d="M300 148V129" stroke="#ffd597" stroke-opacity=".65" transform="rotate(240 300 355)"/><path d="M300 148V129" stroke="#ffd597" stroke-opacity=".65" transform="rotate(270 300 355)"/><path d="M300 148V129" stroke="#ffd597" stroke-opacity=".65" transform="rotate(300 300 355)"/><path d="M300 148V129" stroke="#ffd597" stroke-opacity=".65" transform="rotate(330 300 355)"/></g><path d="M186 363L300 303L414 363V491L300 544L186 491Z" fill="#162c3c" stroke="#ffd597" stroke-width="3"/><path d="M185 363L176 290L300 230L415 290L414 363M300 422V542M185 363L300 422L414 363" fill="none" stroke="#c6b4ff" stroke-width="3"/><path d="M300 282L314 318L352 330L315 343L300 380L286 343L249 330L287 318Z" fill="#ffd597"/><path d="M63 828L225 611H376L541 828" fill="url(#world-lucky-disaster-floor)" stroke="#ffd597" stroke-opacity=".25"/><g transform="translate(300 756) scale(0.72)" class="world-character">
    <ellipse cy="102" rx="83" ry="12" fill="#020910" opacity=".65"/>
    <path d="M-21 -77Q-46 -69 -48 -27L-76 83Q-30 109 3 102Q46 110 77 84L47 -29Q44 -62 20 -78Z" fill="url(#world-lucky-disaster-robe)" stroke="#ffd597" stroke-opacity=".48" stroke-width="1.5"/>
    <path d="M-20 -73L0 -13L19 -74L33 -21L14 83L0 98L-16 79L-31 -21Z" fill="#162c3c" stroke="#ffd597" stroke-opacity=".28"/>
    <path d="M-44 -34Q-70 -23 -91 20L-70 35L-35 4M43 -34Q62 -22 77 22L58 34L34 2" fill="#162c3c" stroke="#ffd597" stroke-opacity=".25"/>
    <path d="M-23 -105Q-24 -77 -7 -70H8Q25 -80 23 -105Z" fill="#6c678f"/>
    <path d="M-23 -105Q-26 -140 0 -143Q30 -141 25 -105L14 -119L-5 -122Z" fill="#090f19" stroke="#ffd597" stroke-opacity=".38"/>
    <path d="M-16 -137Q-7 -158 8 -144L18 -130" fill="#090f19"/>
    <path d="M-20 -118Q-42 -88 -42 -42L-18 -57L-13 -116M20 -116Q42 -89 39 -38L20 -54L14 -117" fill="#0a1019"/><path d="M-38 -89Q-59 -77 -60 -45" fill="none" stroke="#ffd597" stroke-width="2"/>
    
    
    
    <path d="M-56 83Q-37 51 -27 -8M55 84Q39 55 29 4M-5 27L-10 92M8 35L16 95" fill="none" stroke="#ffd597" stroke-opacity=".13"/>
  </g>
    <path d="M-70 744Q121 652 293 728T675 667M-25 810Q145 718 327 794T646 735" fill="none" stroke="#c6b4ff" stroke-width="35" stroke-opacity=".04"/>
    <path fill="url(#world-lucky-disaster-fade)" d="M0 0H600V900H0Z"/>
    <g stroke="#ffd597" stroke-opacity=".2"><path d="M30 72V30H72M528 30H570V72M30 828V870H72M528 870H570V828" stroke-width="1"/></g>
  </svg>